<?xml version="1.0" encoding="utf-8"?>
<!-- Generator: Adobe Illustrator 25.0.1, SVG Export Plug-In . SVG Version: 6.00 Build 0)  -->
<svg version="1.1" id="Слой_1" xmlns="http://www.w3.org/2000/svg" xmlns:xlink="http://www.w3.org/1999/xlink" x="0px" y="0px"
	 viewBox="0 0 36 36" style="enable-background:new 0 0 36 36;" xml:space="preserve">
<style type="text/css">
	.st0{fill:url(#SVGID_1_);}
	.st1{fill:none;stroke:#FFFFFF;stroke-miterlimit:10;}
	.st2{fill:#FFFFFF;}
	.st3{fill:none;stroke:#FFFFFF;stroke-width:2;stroke-miterlimit:10;}
</style>
<linearGradient id="SVGID_1_" gradientUnits="userSpaceOnUse" x1="3.5401" y1="11.8569" x2="34.4886" y2="25.0049">
	<stop  offset="0" style="stop-color:#7294CD"/>
	<stop  offset="0.134" style="stop-color:#7996CD"/>
	<stop  offset="0.3023" style="stop-color:#8A9ACE"/>
	<stop  offset="0.489" style="stop-color:#A2A0CE"/>
	<stop  offset="0.6889" style="stop-color:#C1A9CF"/>
	<stop  offset="0.8972" style="stop-color:#E4B2CF"/>
	<stop  offset="1" style="stop-color:#F6B7CF"/>
</linearGradient>
<path class="st0" d="M31,36H5c-2.8,0-5-2.2-5-5V5c0-2.8,2.2-5,5-5h26c2.8,0,5,2.2,5,5v26C36,33.8,33.8,36,31,36z"/>
<g>
	<path class="st1" d="M31.7,22.6H4.3c-0.7,0-1.4-0.6-1.4-1.4V7c0-0.7,0.6-1.4,1.4-1.4h27.4C32.4,5.6,33,6.3,33,7v14.3
		C33,22,32.4,22.6,31.7,22.6z"/>
	<polygon class="st2" points="21,13.7 12.4,18.8 12.3,8.8 	"/>
	<path class="st2" d="M28.2,29.2l-2,0.6l-4.4-15.2l0,0c1.1-0.3,2.2,0.3,2.5,1.4L28.2,29.2z"/>
	<polygon class="st2" points="24.5,22.2 20.7,22.2 30.3,28.2 31.4,26.5 	"/>
	<circle class="st3" cx="26.7" cy="30.5" r="1.7"/>
	<circle class="st3" cx="31.9" cy="27" r="1.7"/>
</g>
</svg>
